<svg width="40" height="40" viewBox="0 0 40 40" fill="none" xmlns="http://www.w3.org/2000/svg">
<rect width="40" height="40" rx="10" fill="#FFE1D8"/>
<path d="M20 29.0037C18.7369 27.9263 17.5662 26.7452 16.5 25.4727C14.9 23.5617 13 20.7157 13 18.0037C12.9986 15.1713 14.7042 12.6171 17.3211 11.5331C19.9379 10.4491 22.9501 11.049 24.952 13.0527C26.2685 14.3633 27.0059 16.1461 27 18.0037C27 20.7157 25.1 23.5617 23.5 25.4727C22.4338 26.7452 21.2631 27.9263 20 29.0037ZM20 13.0037C17.2399 13.007 15.0033 15.2437 15 18.0037C15 19.1697 15.527 21.1887 18.035 24.1897C18.6531 24.9278 19.309 25.6334 20 26.3037C20.691 25.6342 21.3472 24.9296 21.966 24.1927C24.473 21.1877 25 19.1687 25 18.0037C24.9967 15.2437 22.7601 13.007 20 13.0037ZM20 21.0037C18.3431 21.0037 17 19.6606 17 18.0037C17 16.3469 18.3431 15.0037 20 15.0037C21.6569 15.0037 23 16.3469 23 18.0037C23 18.7994 22.6839 19.5624 22.1213 20.125C21.5587 20.6876 20.7957 21.0037 20 21.0037Z" fill="#F75532"/>
</svg>
